<?xml version="1.0" encoding="UTF-8" standalone="no"?>
<!-- Created with Inkscape (http://www.inkscape.org/) -->

<svg
   xmlns:dc="http://purl.org/dc/elements/1.1/"
   xmlns:cc="http://creativecommons.org/ns#"
   xmlns:rdf="http://www.w3.org/1999/02/22-rdf-syntax-ns#"
   xmlns:svg="http://www.w3.org/2000/svg"
   xmlns="http://www.w3.org/2000/svg"
   xmlns:sodipodi="http://sodipodi.sourceforge.net/DTD/sodipodi-0.dtd"
   xmlns:inkscape="http://www.inkscape.org/namespaces/inkscape"
   width="256"
   height="256"
   id="svg2"
   version="1.1"
   inkscape:version="0.48.1 r9760"
   sodipodi:docname="logo4.svg">
  <defs
     id="defs4" />
  <sodipodi:namedview
     id="base"
     pagecolor="#ffffff"
     bordercolor="#666666"
     borderopacity="1.0"
     inkscape:pageopacity="0.0"
     inkscape:pageshadow="2"
     inkscape:zoom="0.85839845"
     inkscape:cx="340.29713"
     inkscape:cy="273.41947"
     inkscape:document-units="px"
     inkscape:current-layer="g4519"
     showgrid="false"
     showguides="true"
     inkscape:guide-bbox="true"
     inkscape:window-width="1280"
     inkscape:window-height="906"
     inkscape:window-x="0"
     inkscape:window-y="26"
     inkscape:window-maximized="1">
    <sodipodi:guide
       orientation="0,1"
       position="136.88282,41.356086"
       id="guide4532" />
    <sodipodi:guide
       orientation="0,1"
       position="136.30034,206.19795"
       id="guide4547" />
    <sodipodi:guide
       orientation="1,0"
       position="240.85552,222.21615"
       id="guide4549" />
    <sodipodi:guide
       orientation="1,0"
       position="16.309443,219.88623"
       id="guide4601" />
    <sodipodi:guide
       orientation="0,1"
       position="35.240046,15.435722"
       id="guide4605" />
  </sodipodi:namedview>
  <metadata
     id="metadata7">
    <rdf:RDF>
      <cc:Work
         rdf:about="">
        <dc:format>image/svg+xml</dc:format>
        <dc:type
           rdf:resource="http://purl.org/dc/dcmitype/StillImage" />
        <dc:title></dc:title>
      </cc:Work>
    </rdf:RDF>
  </metadata>
  <g
     inkscape:label="Ebene 1"
     inkscape:groupmode="layer"
     id="layer1"
     transform="translate(0,-796.36218)">
    <g
       id="g4519">
      <rect
         y="796.36218"
         x="0"
         height="256"
         width="256"
         id="rect3753"
         style="fill:#a00000;fill-opacity:1;stroke:none"
         ry="18.639362" />
      <g
         transform="matrix(0.97818786,0,0,1.0222985,0,6)"
         style="font-size:66.45423126px;font-style:italic;font-variant:normal;font-weight:bold;font-stretch:normal;text-align:start;line-height:125%;letter-spacing:0px;word-spacing:0px;writing-mode:lr-tb;text-anchor:start;fill:#ffffff;fill-opacity:1;stroke:#ffffff;stroke-width:5;stroke-miterlimit:4;stroke-opacity:1;stroke-dasharray:none;font-family:jsMath-cmmib10;-inkscape-font-specification:jsMath-cmmib10 Bold Italic"
         id="text4607">
        <path
           d="m 160.70489,793.33485 0,3.12335 4.25307,0.33227 0.731,0.93036 -6.77834,35.55301 -0.93036,0.99682 -4.31952,0.33227 0,3.32271 15.15156,0 0,-3.25626 -4.38597,-0.39872 -0.59809,-1.12973 5.98088,-31.23349 15.28447,36.0182 6.84479,0 7.50933,-40.27127 1.06326,-0.8639 4.25307,-0.33227 0,-3.12335 -15.21802,0 0,3.05689 4.31953,0.46518 0.79745,0.86391 -5.64861,29.43922 -13.62312,-32.2303 0,-1.5949 -14.68638,0"
           style="fill:#ffffff;stroke:#ffffff;stroke-width:5;stroke-miterlimit:4;stroke-opacity:1;stroke-dasharray:none;font-family:Bitstream Charter;-inkscape-font-specification:Bitstream Charter"
           id="path3766"
           inkscape:connector-curvature="0" />
        <path
           d="m 229.38033,792.93612 -23.32543,41.26808 -3.72144,0.53164 0,3.1898 14.28766,0 0,-3.25626 -3.9208,-0.26582 -0.66454,-0.99681 6.11379,-11.16431 14.81929,0 1.86072,11.0314 -0.731,0.99682 -4.0537,0.39872 0,3.25626 17.47746,0 0,-3.25626 -3.85435,-0.46518 -0.66454,-0.8639 -6.77833,-40.40418 -6.84479,0 m 0.19937,8.37324 2.72462,17.2781 -12.16112,0 9.4365,-17.2781"
           style="fill:#ffffff;stroke:#ffffff;stroke-width:5;stroke-miterlimit:4;stroke-opacity:1;stroke-dasharray:none;font-family:Bitstream Charter;-inkscape-font-specification:Bitstream Charter"
           id="path3768"
           inkscape:connector-curvature="0" />
      </g>
      <g
         transform="matrix(0.97818787,0,0,1.0222985,-4,6)"
         style="font-size:66.45423126px;font-style:italic;font-variant:normal;font-weight:bold;font-stretch:normal;text-align:start;line-height:125%;letter-spacing:0px;word-spacing:0px;writing-mode:lr-tb;text-anchor:start;fill:#ffffff;fill-opacity:1;stroke:#ffffff;stroke-width:5;stroke-miterlimit:4;stroke-opacity:1;stroke-dasharray:none;font-family:jsMath-cmmib10;-inkscape-font-specification:jsMath-cmmib10 Bold Italic"
         id="text3000">
        <path
           d="m 142.00188,790.0163 c -2.92398,0 -5.11697,2.12654 -5.11697,5.05052 0,2.45881 1.79426,4.18662 4.51888,4.18662 2.85753,0 5.05052,-2.19299 5.05052,-4.98407 0,-2.59171 -1.66135,-4.25307 -4.45243,-4.25307 m -1.32908,15.41738 -11.36368,2.45881 0,2.39235 5.44925,0.86391 -3.58853,17.87618 c -0.33227,1.79427 -0.59809,3.32272 -0.59809,4.45244 0,3.38916 1.66136,5.18343 4.91762,5.18343 3.52207,0 7.17706,-0.93036 11.36367,-2.59172 l 0,-2.72462 c -1.99362,0.59809 -3.58853,0.93036 -4.58534,0.93036 -2.12654,0 -3.25626,-1.26263 -3.25626,-3.65498 0,-0.66455 0.13291,-1.59491 0.33227,-2.72463 l 4.25307,-22.46153 -2.92398,0"
           style="font-size:66.45423126px;font-style:italic;font-variant:normal;font-weight:bold;font-stretch:normal;text-align:start;line-height:125%;writing-mode:lr-tb;text-anchor:start;fill:#ffffff;fill-opacity:1;stroke:#ffffff;stroke-width:5;stroke-miterlimit:4;stroke-opacity:1;stroke-dasharray:none;font-family:Bitstream Charter;-inkscape-font-specification:Bitstream Charter"
           id="path3771"
           inkscape:connector-curvature="0" />
      </g>
      <path
         inkscape:connector-curvature="0"
         d="m -57.302655,1004.2312 0.665,-0.035 0.66875,-0.039 1.3325,-0.077 0.3325,-0.018 0.3325,-0.021 0.66875,-0.043 1.3325,-0.09 0.0875,0 0.0937,0 0.18,-0.013 0.35625,-0.026 0.7225,-0.056 1.44625,-0.1079 0.185,-0.017 0.17625,-0.013 1.08375,-0.09 1.445,-0.1288 0.0875,-0.01 0.0837,-0.01 0.16625,-0.013 0.33625,-0.034 0.67875,-0.063 1.3475,-0.1377 0.0838,-0.01 0.0875,-0.01 0.16625,-0.018 0.33625,-0.034 0.67375,-0.077 1.3525,-0.1552 0.0837,-0.01 0.0775,-0.012 0.16625,-0.018 0.3325,-0.043 0.65875,-0.081 1.32375,-0.1774 0.0825,-0.01 0.0837,-0.013 0.165,-0.022 0.3325,-0.048 0.65875,-0.093 1.32375,-0.2027 0.0875,-0.013 0.0925,-0.013 0.18125,-0.03 0.35625,-0.056 0.7175,-0.1201 1.43625,-0.2455 0.0875,-0.017 0.0925,-0.018 0.17625,-0.03 0.36125,-0.07 0.7175,-0.1333 1.43625,-0.2841 0.0825,-0.021 0.24875,-0.052 0.3375,-0.07 0.66875,-0.1453 1.3375,-0.3018 0.0838,-0.021 0.0875,-0.022 0.4975,-0.1156 0.67,-0.1685 1.3425,-0.34366 0.0875,-0.0264 0.0925,-0.0211 0.18125,-0.052 0.36125,-0.0991 0.7275,-0.20151 1.45,-0.43068 0.0925,-0.0264 0.0888,-0.03 0.18,-0.0564 0.36625,-0.11119 0.7225,-0.23243 1.45,-0.49007 0.0937,-0.0352 0.0875,-0.03 0.17625,-0.0652 0.35625,-0.1245 0.7125,-0.26212 1.42625,-0.55069 0.0875,-0.0344 0.0875,-0.0396 0.18125,-0.0678 0.35625,-0.14644 0.7125,-0.30072 1.426251,-0.62443 0.66375,-0.30953 0.66375,-0.31384 1.32875,-0.66303 0.0825,-0.0388 0.2500001,-0.1289 0.9949999,-0.52971 1.32875,-0.74347 0.0925,-0.052 0.0888,-0.052 0.18,-0.10353 0.36125,-0.21032 0.7175,-0.43508 c 1.495633,-0.90506 2.900088,-1.9177 4.32625,-2.90426 l 0.16625,-0.1201 0.17125,-0.12881 0.33625,-0.25005 0.66874998,-0.51544 c 1.40375962,-1.07634 2.70950462,-2.24496 4.03874962,-3.39111 l 0.0825,-0.0771 0.0838,-0.0727 0.16625,-0.15088 c 0.331043,-0.30796 0.65818,-0.61915 0.98625,-0.92956 l 1.3175,-1.2908 2.6374999,-2.77435 0.0925,-0.0991 0.0875,-0.0991 0.18125,-0.20155 0.35625,-0.4009 0.7124995,-0.81722 1.43625,-1.69941 2.86125,-3.64332 5.34125,-7.69746 5.78625,-9.61054 c 7.961909,-14.4095 15.347303,-30.03456 22.1,-43.55139 l 5.815,-10.7901 0.0875,-0.1597 0.0887,-0.15419 0.18,-0.31058 0.35625,-0.61457 0.71375,-1.21371 1.425,-2.35252 2.8575,-4.39776 0.33125,-0.4813 0.3325,-0.47799 0.66875,-0.93286 1.3275,-1.79413 0.16625,-0.21587 0.17125,-0.21476 0.3325,-0.42183 0.66375,-0.83043 1.42125,-1.66857 0.0925,-0.10353 0.18,-0.19824 0.36125,-0.3998 0.71875,-0.76545 1.445,-1.42848 0.0875,-0.0859 0.0925,-0.0815 0.18125,-0.16851 0.36125,-0.3227 0.7225,-0.62338 1.44,-1.13551 0.0838,-0.0606 0.0875,-0.065 0.16625,-0.12005 0.33625,-0.23239 0.675,-0.44716 0.0875,-0.0517 0.0825,-0.0562 0.16625,-0.10353 0.3375,-0.20155 0.67375,-0.37887 0.0825,-0.043 0.0875,-0.0473 0.16625,-0.0859 0.3375,-0.16851 0.0875,-0.043 0.24875,-0.11565 0.3375,-0.15529 0.0875,-0.0341 0.0838,-0.0386 0.165,-0.0694 0.3375,-0.13327 0.67375,-0.2445 0.3325,-0.10353 0.32625,-0.0991 0.0887,-0.0254 0.0775,-0.022 0.16625,-0.0429 0.3325,-0.0815 0.0825,-0.022 0.0825,-0.0165 0.16125,-0.0352 0.0888,-0.0165 0.0775,-0.0176 0.16625,-0.0342 0.16625,-0.0264 0.165,-0.0298 0.16625,-0.0253 0.16125,-0.022 0.0838,-0.0132 0.24875,-0.0254 0.0825,-0.0132 0.0838,-0.004 0.165,-0.0165 0.0838,-0.004 0.0825,-0.009 0.0787,-0.004 0.415,-0.0209 0.0825,0 0.0838,-0.004 0.165,0 0.0838,-0.004 0.0825,0 0.0788,0.004 0.16625,0 0.0825,0.004 0.0825,0 0.3325,0.0165 0.0825,0.009 0.0887,0.004 0.0875,0.009 0.0925,0.004 0.17625,0.0165 0.0925,0.0132 0.17625,0.022 0.0925,0.008 0.0875,0.0132 0.18125,0.0264 0.0875,0.0121 0.0875,0.0176 0.18125,0.0297 0.0925,0.0132 0.0875,0.0176 0.18125,0.0386 0.35625,0.0771 0.0875,0.022 0.0937,0.021 0.175,0.0474 0.36125,0.0991 0.17625,0.0518 0.18125,0.0561 0.36125,0.12005 0.175,0.0606 0.18125,0.0639 0.35625,0.13768 0.0925,0.0386 0.0875,0.0352 0.18125,0.0771 0.35625,0.15859 0.7175,0.34473 0.16625,0.0859 0.16625,0.0903 0.33625,0.18063 0.67,0.39208 0.165,0.10243 0.16625,0.10793 0.3375,0.21918 0.66875,0.46037 0.0825,0.0562 0.0838,0.065 0.16625,0.12005 0.336253,0.25001 0.66875,0.52865 1.33875,1.15754 0.0875,0.0815 0.0925,0.0859 0.18125,0.16741 0.36125,0.34913 0.7275,0.71809 1.445,1.55734 0.185,0.20705 0.18125,0.20596 0.36125,0.42182 0.722501,0.87339 1.45,1.8547 0.0937,0.12005 0.0875,0.11674 0.175,0.2401 0.3575,0.48681 0.7125,0.99784 1.421251,2.0948 2.84625,4.57398 0.3325,0.5672 0.33125,0.57271 0.66375,1.16085 1.32875,2.39657 2.65625,5.06409 5.75625,12.00271 5.37625,12.02473 5.26875,12.02474 5.7175,12.73512 5.3375,11.12051 5.78625,10.85508 5.4,8.82416 0.0787,0.12445 0.0825,0.12446 0.16625,0.2456 0.33125,0.49452 0.66,0.9681 1.3275,1.88002 2.64625,3.52773 0.0888,0.11234 0.0875,0.1156 0.18125,0.22362 0.36125,0.45156 0.7175,0.87775 1.435,1.69945 2.87125,3.13229 0.16625,0.17182 0.17125,0.17286 0.33125,0.3392 0.66875,0.6674 1.34375,1.282 2.68,2.3702 0.0888,0.077 0.0925,0.074 0.18,0.1497 0.36125,0.2974 0.7275,0.5805 1.45125,1.1146 0.0925,0.065 0.0925,0.068 0.18125,0.1333 0.36125,0.2621 0.7275,0.5165 1.45,0.9814 0.0925,0.061 0.0875,0.055 0.17625,0.1168 0.35625,0.2279 0.7125,0.4472 1.42625,0.8524 0.0925,0.051 0.0888,0.052 0.175,0.099 0.35625,0.2027 0.71375,0.3954 1.425,0.749 0.16625,0.085 0.16625,0.081 0.3325,0.1674 0.66875,0.3226 1.49375,0.6973 0.4975,0.2191 0.665,0.2885 1.3325,0.5463 0.0875,0.039 0.0887,0.035 0.185,0.072 0.35625,0.1377 0.7225,0.2753 1.44125,0.5209 0.0925,0.03 0.0875,0.034 0.18125,0.061 0.36125,0.1245 0.7225,0.2367 1.44,0.456 0.16625,0.052 0.17125,0.052 0.33625,0.099 0.67375,0.1938 1.34375,0.3734 0.0875,0.026 0.24875,0.063 0.3375,0.09 0.67375,0.1729 1.3475,0.3271 0.0825,0.017 0.0838,0.022 0.16125,0.039 0.33125,0.072 0.66,0.1508 1.3225,0.2842 0.0788,0.013 0.58125,0.1201 0.65875,0.1288 1.31875,0.2501 0.0875,0.017 0.0925,0.013 0.17625,0.034 0.36125,0.065 0.7125,0.1244 1.43125,0.2324 0.0925,0.018 0.0875,0.012 0.18125,0.026 0.35625,0.056 0.7175,0.1068 1.43125,0.2071 0.0825,0.01 0.0825,0.012 0.16625,0.022 0.3375,0.048 0.66875,0.086 1.3325,0.1674 0.0838,0.01 0.0875,0.013 0.16625,0.017 0.3325,0.04 0.66875,0.077 1.3375,0.1466 0.185,0.017 0.18625,0.022 0.37125,0.039 0.74625,0.072 1.495,0.142 0.74125,0.07 0.7475,0.061 0.37125,0.034 0.37625,0.03 0.0925,0.01 0.0925,0 0.27875,0.026 0.0925,0 0.0925,0.01 0.0975,0.01"
         style="fill:none;stroke:#ffffff;stroke-width:23.46665573;stroke-linecap:round;stroke-linejoin:round;stroke-miterlimit:4;stroke-opacity:1;stroke-dasharray:none"
         id="path5718"
         sodipodi:nodetypes="cccccccccccccccccccccccccccccccccccccccccccccccccccccccccccccccccccccccccccccccccccccccccccccccccccccccccccccccccccccccccccccccccccccccccccccccccccccccccccccccccccccccccccccccccccccccccccccccccccccccccccccccccccccccccccccccccccccccccccccccccccccccccccccccccccccccccccccccccccccccccccccccccccccccccccccccccccccccccccccccccccccccccccccccccccccccccccccccccccccccccccccccccccccccccccccccccccccccccccccccccccccc" />
    </g>
  </g>
</svg>
